<svg xmlns="http://www.w3.org/2000/svg" viewBox="0 0 533.71 252.29"><defs><style>.cls-1,.cls-2{fill:#fff;}.cls-1,.cls-3,.cls-4{fill-rule:evenodd;}.cls-3{fill:#d5dedc;}.cls-4,.cls-5{fill:#003d79;}</style></defs><title>Asset 1</title><g id="Layer_2" data-name="Layer 2"><g id="Layer_1-2" data-name="Layer 1"><path class="cls-1" d="M205.79,8.56c-43.25,5-81.31,14.12-115,28.32C63.36,48.47,37.58,63.26,20.27,85.6,10.35,98.41.9,118.15,6.83,140.8c6.14,23.43,24.65,40.28,42.72,52.8,19.05,13.21,41.61,23.29,64.8,31,24,7.93,49.92,13.68,78,17.52,28.47,3.89,59.41,6.21,90.48,4.8s59.44-4.06,86.16-9.36c52.48-10.4,99.72-27.81,133-58.08C516.69,166,534.62,142,526.91,112c-5.85-22.74-24.38-40.75-42.48-53-38.5-26.14-86.75-41.09-142.56-48.72-27.79-3.8-59.3-6.31-91-4.8C235,6.2,220.31,6.89,205.79,8.56Z"/><path class="cls-2" d="M270,15a524.43,524.43,0,0,1,70.51,5.15c58.1,7.95,103.34,23.35,138.3,47.09,26.3,17.85,35.4,35.55,38.41,47.26,6.8,26.45-10.87,47.41-22,57.56-28.58,26-70.51,44.23-128.17,55.67-23.81,4.72-50.71,7.64-84.67,9.18-5.93.27-12.07.41-18.24.41a523.67,523.67,0,0,1-70.44-5.12c-27.74-3.79-53.38-9.55-76.21-17.11-24.66-8.16-45.61-18.15-62.24-29.68-22-15.26-34.32-30.23-38.74-47.12-5.09-19.44,3.54-36,11.67-46.54C42,73.94,63.1,59.44,94.72,46.09,127,32.49,163.66,23.46,206.93,18.5c14.14-1.62,28.79-2.32,44.3-3.06h.15c6-.29,12.3-.43,18.62-.43m0-10q-9.51,0-19.1.44c-15.92.76-30.6,1.45-45.12,3.12-43.25,5-81.31,14.12-115,28.32C63.36,48.47,37.58,63.26,20.27,85.6,10.35,98.41.9,118.15,6.83,140.8c6.14,23.43,24.65,40.28,42.72,52.8,19.05,13.21,41.61,23.29,64.8,31,24,7.93,49.92,13.68,78,17.52a532.61,532.61,0,0,0,71.79,5.22q9.32,0,18.69-.42c31.21-1.42,59.44-4.06,86.16-9.36,52.48-10.4,99.72-27.81,133-58.08C516.69,166,534.62,142,526.91,112c-5.85-22.74-24.38-40.75-42.48-53-38.5-26.14-86.75-41.09-142.56-48.72A534.36,534.36,0,0,0,270,5Z"/><path class="cls-1" d="M250.91,5.44c31.66-1.51,63.17,1,91,4.8C397.68,17.87,445.93,32.82,484.43,59c18.1,12.29,36.63,30.3,42.48,53,7.71,30-10.23,54-25,67.44-33.24,30.27-80.48,47.68-133,58.08-26.72,5.3-55,7.94-86.16,9.36s-62-.91-90.48-4.8c-28.08-3.84-54-9.59-78-17.52-23.19-7.67-45.75-17.75-64.8-31C31.49,181.08,13,164.24,6.83,140.8.9,118.15,10.35,98.41,20.27,85.6c17.3-22.34,43.09-37.13,70.56-48.72,33.65-14.2,71.71-23.36,115-28.32C220.31,6.89,235,6.2,250.91,5.44Z"/><path class="cls-2" d="M264.32,252.29A538.84,538.84,0,0,1,191.67,247c-28.65-3.92-55.19-9.88-78.89-17.73-26-8.61-48.26-19.25-66.08-31.6C30.9,186.75,9.07,169.06,2,142.07c-7-26.68,6-48.75,14.32-59.53C31.74,62.64,54.8,46.66,88.89,32.27,122.46,18.11,160.51,8.72,205.22,3.59c14.64-1.68,29.53-2.39,45.3-3.14h.15c27.8-1.33,58.71.3,91.88,4.84C403,13.55,450.32,29.76,487.24,54.82c16.65,11.31,37.89,30.19,44.51,55.93,3.76,14.62,5.32,43.46-26.44,72.38-30.66,27.92-74.93,47.31-135.35,59.29-24.56,4.87-52.18,7.87-86.91,9.45Q273.89,252.29,264.32,252.29ZM251.15,10.43H251c-15.6.74-30.33,1.44-44.64,3.09-43.75,5-80.9,14.17-113.59,28C60.33,55.18,38.55,70.17,24.23,88.66,17,98,5.77,117,11.67,139.53c4.74,18.11,17.69,34,40.73,50,17,11.81,38.4,22,63.52,30.32C139,227.47,165,233.29,193,237.13c32.15,4.4,62.29,6,89.58,4.76,34.21-1.55,61.35-4.5,85.41-9.27C426.6,221,469.31,202.4,498.59,175.74c12-10.9,30.94-33.51,23.48-62.5-5.84-22.72-25.22-39.81-40.45-50.15C446,38.92,400.08,23.25,341.19,15.19c-32.56-4.45-62.85-6.05-90-4.76Z"/><path class="cls-3" d="M205.79,8.56c-43.25,5-81.31,14.12-115,28.32C63.36,48.47,37.58,63.26,20.27,85.6,10.35,98.41.9,118.15,6.83,140.8c6.14,23.43,24.65,40.28,42.72,52.8,19.05,13.21,41.61,23.29,64.8,31,24,7.93,49.92,13.68,78,17.52,28.47,3.89,59.41,6.21,90.48,4.8s59.44-4.06,86.16-9.36c52.48-10.4,99.72-27.81,133-58.08C516.69,166,534.62,142,526.91,112c-5.85-22.74-24.38-40.75-42.48-53-38.5-26.14-86.75-41.09-142.56-48.72-27.79-3.8-59.3-6.31-91-4.8C235,6.2,220.31,6.89,205.79,8.56Z"/><path class="cls-2" d="M270,19a520.46,520.46,0,0,1,70,5.12c57.48,7.86,102.16,23,136.59,46.43,25.26,17.15,33.95,33.91,36.79,44.94,6.28,24.42-10.35,44.06-20.83,53.6-28,25.52-69.33,43.41-126.26,54.7-23.61,4.68-50.32,7.57-84.07,9.11-5.88.27-11.95.4-18.05.4a519.68,519.68,0,0,1-69.89-5.09c-27.5-3.76-52.9-9.46-75.5-16.94-24.3-8-44.9-17.86-61.22-29.17-21.18-14.68-33-28.93-37.15-44.84-4.68-17.86,3.38-33.29,11-43.08,13.34-17.22,34-31.33,64.94-44.4,31.88-13.46,68.23-22.39,111.11-27.31,14-1.61,28.6-2.3,44-3h.15c6-.28,12.18-.43,18.43-.43m0-14q-9.51,0-19.1.44c-15.92.76-30.6,1.45-45.12,3.12-43.25,5-81.31,14.12-115,28.32C63.36,48.47,37.58,63.26,20.27,85.6,10.35,98.41.9,118.15,6.83,140.8c6.14,23.43,24.65,40.28,42.72,52.8,19.05,13.21,41.61,23.29,64.8,31,24,7.93,49.92,13.68,78,17.52a532.62,532.62,0,0,0,71.79,5.22q9.32,0,18.69-.42c31.21-1.42,59.44-4.06,86.16-9.36,52.48-10.4,99.72-27.81,133-58.08C516.69,166,534.62,142,526.91,112c-5.85-22.74-24.38-40.75-42.48-53-38.5-26.14-86.75-41.09-142.56-48.72A534.37,534.37,0,0,0,270,5Z"/><path class="cls-4" d="M250.91,5.44c31.66-1.51,63.17,1,91,4.8C397.68,17.87,445.93,32.82,484.43,59c18.1,12.29,36.63,30.3,42.48,53,7.71,30-10.23,54-25,67.44-33.24,30.27-80.48,47.68-133,58.08-26.72,5.3-55,7.94-86.16,9.36s-62-.91-90.48-4.8c-28.08-3.84-54-9.59-78-17.52-23.19-7.67-45.75-17.75-64.8-31C31.49,181.08,13,164.24,6.83,140.8.9,118.15,10.35,98.41,20.27,85.6c17.3-22.34,43.09-37.13,70.56-48.72,33.65-14.2,71.71-23.36,115-28.32C220.31,6.89,235,6.2,250.91,5.44Zm11.76,8.16a522.43,522.43,0,0,0-84.48,7c-26.05,4.18-50.4,10.13-73,18.48C78.35,49,51.83,62.13,33.71,81.76c-10.46,11.34-21.86,26.73-20.16,48,2.08,26.08,19.61,42.62,36.48,55,17.8,13,38.88,23,61,30.48q69.29,23.59,159.6,23.52c58.69,0,113.89-9.38,157.44-25.44,32.09-11.83,64-28.26,81.84-55.2,6-9.14,11.26-20.84,10.32-35.52-1.64-25.54-20.67-43.27-36.48-55-18.39-13.6-38.27-22.86-61-30.48a454.78,454.78,0,0,0-115-22.32c-14.1-.92-30.45-1.88-44.64-1.2Z"/><path class="cls-4" d="M160.67,29.92c1-.21.72,3.61.72,5.52v187C113,211.24,68.85,197.3,38.75,167.2c-9.58-9.58-18.86-22.92-19.2-40.08-.36-18.12,8.86-30.83,18.24-41,9.68-10.55,21.77-18.47,34.08-25.2C98.16,46.52,127.62,36.82,160.67,29.92Z"/><path class="cls-3" d="M62.27,72.88v4.8c2.06.46,5.4.56,7,1.92,3.12,2.72,2.16,13.22,2.16,20.4v45.12c0,7.69.81,15.34,0,22.56-.65,5.82-4.9,7.27-10.8,7v5.52H95.15v-5.52C82.78,176.53,84.59,164,84.59,153.52c0-8.82-.19-17.38.24-23.76,15.84.16,32.32-.32,47.76.24v21.12c0,7.44,1,16.05-1.2,20.16-2.08,3.94-6.94,3.18-13,3.36v5.52h38.64v-5.52c-2.44-.15-6,.1-7.92-1-4.5-2.43-3.6-13.48-3.6-21.6v-50.4c0-7.71-1.14-19.35,2.88-22.32,1.57-1.16,5.2-1.48,7-1.68-.14-1.78.29-4.13-.24-5.52h-35c-.53,1.47-.1,3.9-.24,5.76,14.45-3,12.72,9.39,12.72,20.88,0,8.62.19,16.47-.24,22.56H84.59V98.8c0-10.59-1.65-23.16,10.56-20.88V72.16H62.51C62.23,72.2,62.25,72.54,62.27,72.88Z"/><path class="cls-2" d="M158.07,181.16H117.43v-7.49l1,0c1,0,2,0,2.9,0,4.94,0,7.81-.16,9.2-2.79,1.53-2.9,1.36-8.66,1.19-14.24-.05-1.8-.11-3.67-.11-5.45V131c-9.25-.31-19-.26-28.46-.21-5.71,0-11.61.06-17.36,0-.26,4.66-.23,10.41-.2,16.48,0,2.06,0,4.15,0,6.27,0,1.19,0,2.4,0,3.62-.12,6.19-.24,12.59,2.82,15.27,1.47,1.29,3.64,1.7,6.63,1.24l1.15-.18v7.68H59.59v-7.57l1.05.05c6.32.34,9.24-1.49,9.75-6.07a100.49,100.49,0,0,0,.18-14.7c-.09-2.53-.18-5.15-.18-7.75V100c0-1.33,0-2.78.07-4.27.14-6,.3-13.47-1.88-15.38-.93-.81-2.87-1.1-4.59-1.36-.69-.1-1.34-.2-1.93-.33l-.78-.17V72.91c-.07-1.3.56-1.66,1.1-1.74H96.15v8L95,78.9c-2.94-.55-5.08-.22-6.54,1-3.08,2.6-3,9.14-2.88,15.45,0,1.15,0,2.3,0,3.43v21.56h45.82c.26-4.41.23-9.79.2-15.46,0-2,0-4,0-6.1,0-1.12,0-2.25,0-3.37.1-6.62.19-12.88-3-15.54-1.8-1.48-4.58-1.81-8.51-1l-1.3.27.1-1.32a20.39,20.39,0,0,0,0-2.12,11,11,0,0,1,.3-3.9l.24-.66h36.43l.24.65a10.2,10.2,0,0,1,.31,3.77,18.94,18.94,0,0,0,0,2l.07,1-1.4.16c-1.68.19-4.81.53-6,1.44-2.9,2.14-2.7,10.47-2.55,17.17,0,1.53.07,3,.07,4.35v50.4c0,1.14,0,2.34,0,3.57-.1,6.84-.23,15.35,3.11,17.15,1.28.69,3.56.74,5.58.78.68,0,1.34,0,1.93.06l.94.06Zm-38.64-2h36.64V175.6l-.91,0c-2.24,0-4.78-.1-6.49-1-4.41-2.38-4.28-10.8-4.16-18.94,0-1.21,0-2.4,0-3.54v-50.4c0-1.34,0-2.79-.07-4.3-.18-7.53-.38-16.06,3.36-18.82,1.53-1.13,4.51-1.54,6.53-1.77,0-.42,0-.86,0-1.28a15.28,15.28,0,0,0,0-2.35H120.9a16.11,16.11,0,0,0,0,2.5c0,.35,0,.71,0,1.06,3.94-.62,6.88-.09,9,1.63,4,3.27,3.87,10,3.76,17.11,0,1.11,0,2.23,0,3.34,0,2.08,0,4.12,0,6.09,0,6.11.06,11.88-.26,16.54l-.07.93H83.59V98.8c0-1.12,0-2.26,0-3.4-.11-6.78-.22-13.8,3.59-17,1.73-1.46,4-2,7-1.63V73.16H63.27v3.69l1,.16c2,.3,4.24.64,5.61,1.83,2.9,2.52,2.73,9.85,2.57,16.93,0,1.47-.07,2.9-.07,4.22v45.12c0,2.56.09,5.17.18,7.68a103.54,103.54,0,0,1-.19,15c-.78,7-6.26,8-10.79,7.89v3.48H94.15v-3.39c-3,.28-5.37-.34-7.1-1.85-3.76-3.3-3.63-10.17-3.5-16.81,0-1.21,0-2.41,0-3.58,0-2.11,0-4.2,0-6.26,0-6.52-.07-12.69.26-17.57l.06-.94h.94c6,.06,12.25,0,18.28,0,9.8-.05,19.93-.1,29.51.24l1,0v22.08c0,1.75.06,3.6.11,5.39.18,6.1.35,11.87-1.42,15.23-2,3.82-6.17,3.84-11,3.86h-1.88Z"/><path class="cls-2" d="M217.21,147.73c-5.36,5.51-9.69,8.13-13.45,8.13-4.33,0-6.5-2.75-6.38-8.13-5.47,4.85-6.73,8.13-13.45,8.13-7,0-11.86-5.24-11.86-12.59a13.57,13.57,0,0,1,3-9c2.28-2.62,5.7-3.93,9.69-5.24s8.44-3,12.65-6.42v-4.2c0-9.18-2.39-13.24-7.75-13.24-3.53,0-6.38,2.49-6.38,5.51a10.3,10.3,0,0,0,1.14,3.93L174,119.41a7.29,7.29,0,0,1-1.37-4.06c0-6.42,10.6-15.08,20.63-15.08,9.35,0,14.93,5.24,14.93,14.68v29.37c0,2.75.68,4.46,2.39,4.46,1.37,0,3.19-1,5.59-3.41Zm-19.84-21.37c-12.2,8.26-13.91,9-13.91,15.6,0,4.59,2.17,7.73,5.36,7.73a6.11,6.11,0,0,0,4.1-1.83,55.55,55.55,0,0,1,4.45-3.67Z"/><path class="cls-2" d="M213.57,108.66V106l15.62-5.77H232v13.11h.23c4.45-9.7,7.07-13.11,10.15-13.11,1.71,0,3.88,1.71,10.72,3.28l-3.76,10.75c-5.13-1.18-8.44-3.67-9.92-3.67-2.62,0-5,2.75-7.41,8.39v21.76c0,9.44,2.05,10.49,11.4,10.36v3.28H213.57v-3.28c5.24,0,7.64-2.1,7.64-9.83V111.94Z"/><path class="cls-2" d="M286.41,147.47c-7,5.37-12.31,8.39-18.92,8.39-10,0-18-11.14-18-25.43,0-17.17,11.74-30.15,27.13-30.15a35.57,35.57,0,0,1,9.8,1.44V82.44c0-4.59-1.48-7.34-7.52-7.21V72l15.5-5.51h2.85V141.3c0,3,.91,4.2,3.19,4.2a17,17,0,0,0,4.45-1v3L289.26,156h-2.85Zm0-32.25c-4.33-6.82-8.09-9.7-12.88-9.7-7.75,0-12.65,7.87-12.65,20.19,0,13.63,5.36,23.07,13.34,23.07,3.42,0,6.27-1.18,12.2-5.11Z"/><path class="cls-2" d="M300.55,104.33l17.21-5.51h2.51v41.56c0,8.65,1.6,10.75,8.32,10.75v3.28h-28v-3.28c6.38.26,8.89-2.23,8.89-9.31V112.46c0-2.75-.23-3.93-8.89-5.24Zm13.68-34.87a6.56,6.56,0,0,1,7,6.82c0,4.2-3,7.08-7.3,7.08a6.59,6.59,0,0,1-7-6.95C306.93,72.21,309.78,69.46,314.23,69.46Z"/><path class="cls-2" d="M329.39,139.34H332c1.37,7.87,5.93,13,11.51,13,4,0,6.84-2.88,6.84-7.21,0-10.23-20.75-16.13-20.75-29.89,0-8.65,6.84-14.95,16.07-14.95a35,35,0,0,1,10.6,1.84v14.42h-2.51c-1.48-7.87-4.79-12.19-9.46-12.19a5.94,5.94,0,0,0-5.93,6.16c0,10.23,21.09,13.9,21.09,30,0,8.65-7,15.34-15.85,15.34a25.68,25.68,0,0,1-5.13-.52,16,16,0,0,0-3.08-.52,2.4,2.4,0,0,0-2.17,1.18h-2.39Z"/><path class="cls-2" d="M388.78,100.27c19.27,0,26.45,16,26.45,27.66,0,16-11.06,27.92-26,27.92-16.19,0-26.45-11-26.45-28.19C362.79,111,372.93,100.27,388.78,100.27Zm2.17,51.39c7.64,0,12.65-7.34,12.65-19.4,0-15.73-7.52-27.79-16.3-27.79-7.75,0-12.88,7.6-12.88,19.4C374.42,139.47,381.71,151.66,390.95,151.66Z"/><path class="cls-2" d="M415.34,106l15.5-5.77h2.85v11c10.15-7.47,15.85-11,21.09-11,7.87,0,11.86,6.56,11.86,21,0,10.62-.8,17.17-.8,21.5,0,6,2.39,8.39,8.55,8.39v3.28H446.92v-3.28c8.09,0,8.89-3.8,8.89-28.45,0-9.83-2.28-14.81-7.75-14.81-3.87,0-8,2.62-14.36,7.73V141c0,7.34,1.6,10.09,7.64,10.09v3.28h-26v-3.28c5.59,0,7.52-2.62,7.52-9.7V118c0-6.82-.34-7.21-7.52-8.65Z"/><path class="cls-5" d="M213.46,147.73c-5.36,5.51-9.69,8.13-13.45,8.13-4.33,0-6.5-2.75-6.38-8.13-5.47,4.85-6.73,8.13-13.45,8.13-7,0-11.86-5.24-11.86-12.59a13.57,13.57,0,0,1,3-9c2.28-2.62,5.7-3.93,9.69-5.24s8.44-3,12.65-6.42v-4.2c0-9.18-2.39-13.24-7.75-13.24-3.53,0-6.38,2.49-6.38,5.51a10.3,10.3,0,0,0,1.14,3.93l-10.37,4.85a7.29,7.29,0,0,1-1.37-4.06c0-6.42,10.6-15.08,20.63-15.08,9.35,0,14.93,5.24,14.93,14.68v29.37c0,2.75.68,4.46,2.39,4.46,1.37,0,3.19-1,5.59-3.41Zm-19.84-21.37c-12.2,8.26-13.91,9-13.91,15.6,0,4.59,2.17,7.73,5.36,7.73a6.11,6.11,0,0,0,4.1-1.83,55.55,55.55,0,0,1,4.45-3.67Z"/><path class="cls-5" d="M209.82,108.66V106l15.62-5.77h2.85v13.11h.23c4.45-9.7,7.07-13.11,10.15-13.11,1.71,0,3.88,1.71,10.72,3.28l-3.76,10.75c-5.13-1.18-8.44-3.67-9.92-3.67-2.62,0-5,2.75-7.41,8.39v21.76c0,9.44,2.05,10.49,11.4,10.36v3.28H209.82v-3.28c5.24,0,7.64-2.1,7.64-9.83V111.94Z"/><path class="cls-5" d="M282.66,147.47c-7,5.37-12.31,8.39-18.92,8.39-10,0-18-11.14-18-25.43,0-17.17,11.74-30.15,27.13-30.15a35.57,35.57,0,0,1,9.8,1.44V82.44c0-4.59-1.48-7.34-7.52-7.21V72l15.5-5.51h2.85V141.3c0,3,.91,4.2,3.19,4.2a17,17,0,0,0,4.45-1v3L285.51,156h-2.85Zm0-32.25c-4.33-6.82-8.09-9.7-12.88-9.7-7.75,0-12.65,7.87-12.65,20.19,0,13.63,5.36,23.07,13.34,23.07,3.42,0,6.27-1.18,12.2-5.11Z"/><path class="cls-5" d="M296.8,104.33,314,98.83h2.51v41.56c0,8.65,1.6,10.75,8.32,10.75v3.28h-28v-3.28c6.38.26,8.89-2.23,8.89-9.31V112.46c0-2.75-.23-3.93-8.89-5.24Zm13.68-34.87a6.56,6.56,0,0,1,7,6.82c0,4.2-3,7.08-7.3,7.08a6.59,6.59,0,0,1-7-6.95C303.18,72.21,306,69.46,310.48,69.46Z"/><path class="cls-5" d="M325.64,139.34h2.62c1.37,7.87,5.93,13,11.51,13,4,0,6.84-2.88,6.84-7.21,0-10.23-20.75-16.13-20.75-29.89,0-8.65,6.84-14.95,16.07-14.95a35,35,0,0,1,10.6,1.84v14.42H350c-1.48-7.87-4.79-12.19-9.46-12.19a5.94,5.94,0,0,0-5.93,6.16c0,10.23,21.09,13.9,21.09,30,0,8.65-7,15.34-15.85,15.34a25.68,25.68,0,0,1-5.13-.52,16,16,0,0,0-3.08-.52,2.4,2.4,0,0,0-2.17,1.18h-2.39Z"/><path class="cls-5" d="M385,100.27c19.27,0,26.45,16,26.45,27.66,0,16-11.06,27.92-26,27.92-16.19,0-26.45-11-26.45-28.19C359,111,369.18,100.27,385,100.27Zm2.17,51.39c7.64,0,12.65-7.34,12.65-19.4,0-15.73-7.52-27.79-16.3-27.79-7.75,0-12.88,7.6-12.88,19.4C370.67,139.47,378,151.66,387.2,151.66Z"/><path class="cls-5" d="M411.59,106l15.5-5.77h2.85v11c10.15-7.47,15.85-11,21.09-11,7.87,0,11.86,6.56,11.86,21,0,10.62-.8,17.17-.8,21.5,0,6,2.39,8.39,8.55,8.39v3.28H443.17v-3.28c8.09,0,8.89-3.8,8.89-28.45,0-9.83-2.28-14.81-7.75-14.81-3.87,0-8,2.62-14.36,7.73V141c0,7.34,1.6,10.09,7.64,10.09v3.28h-26v-3.28c5.59,0,7.52-2.62,7.52-9.7V118c0-6.82-.34-7.21-7.52-8.65Z"/><path class="cls-5" d="M172,170.83c0-1.68-.31-1.92-2.46-1.92h-.71v-.85c.71,0,2.06-.11,3.56-.17,1.7-.07,3.37-.15,4.58-.15,3.54,0,6.25.37,7.78,1.55a2.6,2.6,0,0,1,1.07,2c0,1.33-1.13,2.16-3.48,2.56v0c2.74.46,4.47,1.9,4.47,3.67,0,2.23-2.63,4.11-7.3,4.11H168.59v-.85c2.77,0,3.42-.55,3.42-1.83Zm3.9,2.66c.62,0,1.64,0,2.18,0,2.83,0,3.54-1.18,3.54-2.29s-.79-2.67-4.22-2.67c-.59,0-1,0-1.5.07Zm0,5.2c0,1.6.76,2,2.57,2,3.17,0,4-1.57,4-3,0-1.31-.79-3.26-4.47-3.26-.54,0-1.64,0-2.07.07Z"/><path class="cls-5" d="M201.13,168.05h7.33v.85h-.2c-2.26,0-2.6.76-2.6,1.81v5.44c0,4.87-4.58,5.79-7.95,5.79-5.09,0-8.32-1.7-8.32-5v-6.51c0-1.09-.4-1.49-2-1.49h-.48v-.85h8.85v.85h-.48c-1.19,0-2,.42-2,1.49v6.51c0,2.66,2.55,3.58,5.12,3.58,3.71,0,5.54-1.62,5.54-4v-5.31c0-1.55-.57-2.25-2.32-2.25h-.51Z"/><path class="cls-5" d="M208.54,168.05h9v.85h-.48c-1.53,0-2.15.5-2.15,1.64v8.65c0,1.07.48,1.59,2.21,1.59h.42v.85h-9v-.85h.4c1.5,0,2.06-.55,2.06-1.51v-8.74c0-1.14-.51-1.64-2.09-1.64h-.37Z"/><path class="cls-5" d="M233,181.64H217.87v-.85h.48c1.81,0,2.35-.5,2.35-1.57v-8.74c0-1.29-1-1.57-2.23-1.57h-.54v-.85h9.59v.85h-.82c-1.47,0-2.09.5-2.09,1.53v9c0,.81.31,1,1.41,1h3.59c1.9,0,2.46-.72,4.36-2.6h1.13Z"/><path class="cls-5" d="M234.48,168.05c1.53-.07,3.28-.11,4.55-.17s2.49-.11,3.88-.11c5.66,0,8.32.55,10.41,2.16a5.69,5.69,0,0,1,2.38,4.59,6.33,6.33,0,0,1-2.63,4.89c-1.44,1.11-3.79,2.23-9.59,2.23h-9v-.85c1.87,0,2.63-.28,2.63-1.53v-8.43c0-1.55-.45-1.92-2.63-1.92ZM241,179.11c0,1.46.28,1.66,2.46,1.66,6.37,0,8-3.37,8-6a5.6,5.6,0,0,0-2.09-4.44c-1.39-1.07-3.28-1.57-6.17-1.57a19.15,19.15,0,0,0-2.21.11Z"/><path class="cls-5" d="M257.11,168.05h9v.85h-.48c-1.53,0-2.15.5-2.15,1.64v8.65c0,1.07.48,1.59,2.21,1.59h.42v.85h-9v-.85h.4c1.5,0,2.06-.55,2.06-1.51v-8.74c0-1.14-.51-1.64-2.09-1.64h-.37Z"/><path class="cls-5" d="M270.81,179c0,1.33.54,1.77,2.8,1.77v.85h-6.85v-.85h.17c1.73,0,2.15-.48,2.15-1.38v-10a4.82,4.82,0,0,0-2.26-.48v-.85h5.83l11.54,9.31v-6.6c0-1.57-.42-1.86-2.69-1.86h-.28v-.85h7.3v.85h-.28c-1.75,0-2.32.28-2.32,1.11v11.69h-1.56l-13.55-10.95Z"/><path class="cls-5" d="M309.82,175.94c-1.5,0-2,.37-2,1.38v3.26a24.2,24.2,0,0,1-7.38,1.38c-7.16,0-10.61-3.08-10.61-7.28,0-4,4.27-6.95,10.3-6.95,2.91,0,5.18.77,6.14.77a1.07,1.07,0,0,0,.85-.28h.71v4h-1.13c-.76-2.23-2.91-3.54-5.86-3.54-4,0-6.79,2.45-6.79,6s2.91,6.25,6.85,6.25a7.94,7.94,0,0,0,3-.57v-3c0-1.09-.59-1.33-3.48-1.38v-.83h9.39Z"/><path class="cls-5" d="M338.33,177.73a14.33,14.33,0,0,1-1.58,4,7.35,7.35,0,0,0-1.67-.15c-1.33,0-2.74.39-4.87.39-5.8,0-10.3-3.1-10.3-7.06s4.78-7.17,10.83-7.17a23.53,23.53,0,0,1,5.43.9.78.78,0,0,0,.57-.22h.71l.25,3.82h-1.1a5.68,5.68,0,0,0-5.63-3.39c-4,0-6.85,2.36-6.85,5.81s3.11,6.23,7.16,6.23a6.59,6.59,0,0,0,5.91-3.15Z"/><path class="cls-5" d="M351,167.64c5.91,0,10.1,2.86,10.1,6.95,0,3.89-3.87,7.36-10.64,7.36-6.51,0-10.3-3.21-10.3-6.88C340.17,170.74,344.7,167.64,351,167.64Zm.11,13.37c3.93,0,5.77-2.62,5.77-5.64,0-3.52-2.26-6.79-6.56-6.79-3.59,0-5.94,2.14-5.94,5.44C344.39,178.19,347.13,181,351.12,181Z"/><path class="cls-5" d="M367.08,170.85H367l-.62,7.78c-.11,1.44-.08,2.14,2.32,2.16v.85h-6.28v-.85c2.21,0,2.26-.5,2.41-2.32l.62-7.91c.08-1.11,0-1.59-1.9-1.66v-.85h6l5.52,9.18,5.29-9.18h6.08v.85c-2,.09-2.18.09-2,1.66l.68,8.06c.14,1.84.23,2,2.49,2.16v.85h-8.91v-.85h.48c1.19,0,2.18,0,2.18-1.42,0-.35,0-.7-.06-1l-.65-7.76h-.06l-6.34,11.06h-.68Z"/><path class="cls-5" d="M394.52,179.15c0,1.27.62,1.64,2.46,1.64h.85v.85h-9.62v-.85h.42c1.56,0,2-.26,2-1.25v-9.37c0-1-.42-1.27-2-1.27H388v-.85c1.1,0,2.63-.17,4.58-.24s3.71-.11,4.5-.11c5.46,0,7.78,2,7.78,4.28,0,2.54-2.77,4.15-7.13,4.15a24.79,24.79,0,0,1-3.23-.22Zm0-4.13a11.08,11.08,0,0,0,2,.15c2.63,0,4.1-1.18,4.1-3.32s-1.53-3.19-4.13-3.19a12.43,12.43,0,0,0-2,.15Z"/><path class="cls-5" d="M408.46,176.59l-1.19,2.56c-.51,1.11-.48,1.64,2.24,1.64h.37v.85h-7.5v-.85h.42c1.36,0,2.07-.48,2.77-2l4.84-10.42-.31-.63h4.19l5.66,11.1a2.87,2.87,0,0,0,2.83,2v.85h-9.19v-.85h1c1.73,0,2-.59,1.41-1.66l-1.33-2.54Zm2.94-6.31L409,175.39h5Z"/><path class="cls-5" d="M427.08,179c0,1.33.54,1.77,2.8,1.77v.85H423v-.85h.17c1.73,0,2.15-.48,2.15-1.38v-10a4.83,4.83,0,0,0-2.26-.48v-.85h5.83l11.54,9.31v-6.6c0-1.57-.42-1.86-2.69-1.86h-.28v-.85h7.3v.85h-.28c-1.75,0-2.32.28-2.32,1.11v11.69h-1.56l-13.55-10.95Z"/><path class="cls-5" d="M457.63,179.17c0,1,.42,1.62,2.46,1.62h.42v.85h-9.65v-.85h.71c1.7,0,2.15-.59,2.15-1.57v-3l-6.08-6.25a2.76,2.76,0,0,0-2.57-1h-.2v-.85h9.22v.85h-.34c-1.64,0-1.87.52-1.27,1.11l4.53,4.61,3.28-4c.74-.9,1-1.75-1-1.75h-.34v-.85h6.68v.85a3.43,3.43,0,0,0-3.14,1.53l-4.84,5.75Z"/></g></g></svg>